PathFileType	3	(X/Y/Z)	D:\minhoCalibration\240510\subject5_KPNP\preferred\preferred16.trc
DataRate	CameraRate	NumFrames	NumMarkers	Units	OrigDataRate	OrigDataStartFrame	OrigNumFrames
200.0	200.0	25	10	mm	200.0	251	149	
Frame#	Time	Left_Ankle_Outer1			Left_Ankle_Inner1			Left_Knee_Outer1			Left_Knee_Inner1			Left_Wrist1			Right_Wrist1			Right_Knee_Inner1			Right_Knee_Outer1			Right_Ankle_Inner1			Right_Ankle_Outer1			
		X1	Y1	Z1	X2	Y2	Z2	X3	Y3	Z3	X4	Y4	Z4	X5	Y5	Z5	X6	Y6	Z6	X7	Y7	Z7	X8	Y8	Z8	X9	Y9	Z9	X10	Y10	Z10	
251	1.245	68.102654	75.459518	-601.45587	20.455347	92.113213	-587.63153	207.33583	517.52551	-460.16861	126.44835	504.12036	-412.22119	196.61623	932.22656	-685.14655	47.072739	1173.9821	-505.54651	-120.89234	944.96429	-70.869286	-101.33319	1034.3242	-84.465187	-589.61865	958.97705	-53.207485	-569.68292	1051.4415	-84.812988
252	1.25	67.853943	75.28788	-601.72589	20.497452	91.728325	-588.15454	205.89908	517.23816	-459.78784	125.23434	503.71838	-411.76785	194.80406	931.14325	-684.52545	45.727795	1174.5116	-504.85648	-123.13255	949.60455	-73.444366	-102.74943	1038.0747	-86.818932	-588.27753	971.23315	-8.4907112	-570.1156	1063.6069	-42.179539
253	1.255	67.282341	74.93055	-601.7608	19.374662	91.116638	-587.51099	204.79709	517.13434	-459.66971	123.94395	503.50958	-411.44769	193.3318	930.24341	-683.63983	45.310463	1174.3782	-506.34204	-127.4198	953.98755	-76.864014	-105.90892	1041.6885	-89.718796	-583.64734	982.48291	37.4767	-567.32721	1074.8826	0.94789147
254	1.26	67.335487	74.598892	-601.94812	19.474327	90.187958	-587.34369	203.52582	516.94562	-459.22098	122.62554	503.16196	-411.04068	192.16133	929.44897	-682.6778	43.185097	1174.5872	-505.74939	-133.27965	958.50793	-80.747879	-110.60471	1045.3806	-93.11866	-574.77557	993.35938	80.824371	-561.01849	1084.9893	44.003555
255	1.265	67.102585	74.429276	-602.06482	19.749289	89.819397	-588.21509	202.29753	516.76782	-458.64154	121.40913	502.90054	-410.75986	191.18497	928.8783	-681.46039	41.151108	1175.1584	-506.00613	-140.18759	962.54199	-84.317688	-116.78999	1049.2078	-96.790894	-560.33044	1002.6483	124.29678	-550.67096	1093.5929	86.141525
256	1.27	66.620918	74.138611	-602.10504	18.225803	89.853943	-587.61316	201.09499	516.52942	-458.0098	120.08264	502.65692	-410.04782	190.48639	928.57294	-679.88495	39.747162	1175.0562	-506.65158	-148.06729	967.64423	-87.880844	-124.06474	1053.0809	-100.76095	-540.63306	1008.6744	165.20299	-536.4519	1100.1094	126.38068
257	1.275	66.099083	73.913795	-601.9389	18.434937	89.621414	-588.15417	199.9269	516.41528	-457.16583	119.09863	502.39331	-409.50485	189.66245	928.48383	-678.01196	37.789398	1175.0004	-507.01367	-156.88913	973.09497	-90.695526	-131.67355	1057.7256	-105.07279	-516.06708	1013.2609	203.56802	-518.04907	1103.4885	163.60661
258	1.28	65.880066	73.767914	-601.9989	17.504509	89.653702	-587.96527	199.00497	516.34778	-456.44269	117.98061	502.1481	-408.56879	188.78058	928.36499	-675.62024	35.624767	1175.4786	-507.12155	-165.59714	979.63202	-93.355858	-139.41348	1064.1888	-109.15484	-484.45535	1012.795	234.89015	-495.3396	1102.9226	196.64479
259	1.285	66.126198	73.981712	-602.46356	16.815557	89.361237	-587.63013	197.98894	516.32782	-455.5932	117.15687	501.80627	-407.5126	187.89606	928.39697	-672.78052	33.03915	1175.3752	-507.37936	-173.40851	986.77972	-95.561264	-145.56017	1071.8657	-112.1501	-455.91165	1010.8961	259.69586	-470.19373	1100.0842	223.57458
260	1.29	65.3302	73.671127	-601.94336	16.424063	89.00032	-587.2525	196.67241	516.17914	-454.56979	116.20168	501.55359	-406.31418	186.75847	928.50989	-669.39429	30.814016	1176.0073	-505.59991	-177.24612	994.39868	-96.174019	-149.55324	1080.4065	-113.38038	-437.42609	1004.4575	270.01001	-455.32083	1098.1124	232.72058
261	1.295	64.897514	73.709373	-601.81531	16.453741	89.051086	-587.34979	195.31258	516.1756	-453.52991	115.01955	501.25684	-404.76862	185.24965	928.3299	-665.32214	27.945635	1176.3527	-505.48047	-175.36217	1002.4901	-93.85849	-150.67833	1088.6321	-113.00362	-428.43475	999.95911	269.31656	-452.63589	1091.7009	235.9791
262	1.3	65.35804	73.989632	-602.00208	16.237202	89.42691	-587.60266	193.42899	516.21228	-452.19302	113.34545	500.97864	-403.03308	184.35939	928.26074	-661.63983	25.036354	1176.8558	-504.55182	-170.68726	1009.4297	-90.095894	-151.37079	1094.0768	-111.15474	-426.06519	994.05438	268.17374	-454.87329	1084.9449	236.73926
263	1.305	65.434944	74.217781	-601.5528	16.771069	89.327751	-587.6947	191.23303	516.40686	-450.26541	111.01224	500.77396	-401.14709	183.23802	927.99054	-657.90662	22.293331	1177.0061	-503.95471	-166.9352	1012.1988	-88.083054	-153.32678	1097.9523	-110.73032	-426.91403	991.70917	268.98715	-460.76331	1080.1844	233.44681
264	1.31	65.647545	74.576881	-601.18787	17.602335	89.192833	-586.96539	188.62747	516.73999	-447.8194	108.20123	500.77332	-399.28116	182.35855	927.97961	-654.28992	18.655439	1177.0763	-504.57065	-163.87996	1014.2194	-86.535805	-156.03105	1099.8417	-110.73798	-429.04184	990.82257	266.98239	-467.43735	1076.7861	230.81567
265	1.315	66.007294	75.155579	-600.95154	16.87779	89.244705	-586.0658	185.62498	517.12109	-444.94669	104.89658	500.76962	-397.57172	181.55997	928.11151	-650.6366	14.495685	1177.1122	-504.64172	-163.19426	1015.9763	-85.811096	-157.99097	1101.1127	-110.00586	-433.76028	991.08752	265.7655	-471.95099	1075.953	230.21426
266	1.32	66.5214	75.876053	-600.95642	16.424238	89.746391	-586.24542	182.17278	517.72656	-441.95972	101.04911	500.95712	-395.92026	180.75041	928.19446	-646.88763	11.035962	1177.7966	-504.75998	-164.60016	1017.4813	-85.750854	-158.63617	1101.8678	-109.28825	-440.64038	989.58643	266.70514	-475.79126	1075.785	230.32364
267	1.325	65.881424	76.123299	-600.16693	16.617422	89.74482	-586.91327	178.31964	518.31946	-439.04562	96.584427	501.25558	-394.34653	180.03185	928.27429	-643.11853	7.4531956	1178.4282	-505.5639	-167.75081	1018.3326	-86.123184	-160.03966	1101.5737	-108.75986	-444.83624	987.11798	264.13135	-479.45087	1073.8165	229.38306
268	1.33	65.603523	76.505844	-599.59021	16.213303	89.649353	-586.86292	174.35432	519.20221	-436.48349	92.124054	501.48492	-393.22961	179.47284	928.21539	-639.47028	4.3282843	1179.1427	-506.53137	-172.07466	1018.6542	-87.175156	-162.78766	1100.8948	-108.98848	-447.42786	985.39233	264.02905	-483.18222	1070.5699	227.92093
269	1.335	64.989662	76.573242	-599.28534	15.606028	89.424149	-587.08313	170.03949	519.93213	-434.02652	87.395187	501.8028	-392.3295	178.93903	928.0885	-635.91217	2.1830773	1179.8849	-508.28772	-176.89833	1018.3458	-88.642334	-167.12921	1101.0549	-110.29421	-448.2027	983.13489	262.8736	-487.11938	1066.6274	226.9782
270	1.34	64.223343	76.650513	-598.99359	14.082747	88.688843	-585.80743	165.8577	520.67999	-432.04843	82.606697	501.99008	-391.66623	178.41331	927.87769	-632.49725	-0.61782777	1180.9617	-508.69501	-182.0425	1017.9196	-89.878128	-173.95731	1101.657	-112.58093	-449.18729	980.69434	264.92117	-490.58414	1062.5645	226.77379
271	1.345	62.306282	76.494637	-598.41833	12.678797	88.275009	-586.86884	161.54506	521.14874	-430.17615	77.970169	502.14322	-391.39682	178.07742	927.62555	-629.23352	-2.2960827	1181.7905	-510.04272	-186.32523	1017.6595	-90.855186	-182.77272	1102.0035	-115.52225	-449.07111	977.99292	263.68799	-493.74103	1058.0618	226.67296
272	1.35	60.409336	76.436432	-598.18079	10.364594	87.369911	-586.48157	157.33261	521.38641	-428.58728	73.419098	502.12955	-390.8829	177.63847	927.1676	-626.15991	-4.0094848	1182.6045	-510.88403	-190.5934	1017.1815	-91.615204	-191.60287	1102.0321	-118.78565	-449.04074	976.66028	265.90616	-496.66074	1053.2413	226.661
273	1.355	58.213146	76.245956	-597.6076	8.5133867	86.891197	-586.67615	153.47258	521.20667	-427.22531	68.693214	501.84918	-390.77756	177.12779	926.50439	-623.26483	-4.6003151	1182.9055	-512.29486	-193.75677	1017.0173	-92.054901	-200.03275	1101.114	-121.69807	-449.69031	973.76904	267.03571	-499.46201	1048.016	226.55815
274	1.36	56.31435	76.255356	-597.2879	6.1031876	85.981583	-586.21765	149.68672	520.73523	-425.93655	63.743202	501.33438	-390.95544	176.57143	925.76782	-620.57098	-6.9147563	1183.1117	-512.69958	-196.21863	1017.3177	-92.270943	-207.312	1099.8716	-124.25714	-450.33401	969.95807	267.11337	-502.26755	1042.4695	226.35335
275	1.365	54.993435	76.325264	-597.27393	5.0206747	85.325348	-586.91895	146.28627	519.7746	-424.51157	59.69799	501.0441	-390.74789	176.16406	925.03864	-618.02942	-8.3824711	1183.5178	-512.73206	-198.33215	1017.5731	-92.450912	-213.61523	1098.0497	-126.50354	-451.20709	965.69287	266.92554	-504.94904	1036.6581	225.8837
